<?xml version="1.0" encoding="UTF-8"?>
<svg xmlns="http://www.w3.org/2000/svg" version="1.1" width="500" height="500" viewBox="0 0 500 500"><rect x="0" y="0" width="500" height="500" fill="#ffffff"/><g transform="scale(23.81)"><g transform="translate(0,0)"><g><g transform="translate(3.5,3.5)"><path fill-rule="evenodd" d="M3.5 0A3.5 3.5 0 0 1 0 3.5A3.5 3.5 0 0 1 -3.5 0A3.5 3.5 0 0 1 0 -3.5A3.5 3.5 0 0 1 3.5 0ZM2.5 0A2.5 2.5 0 0 1 0 2.5A2.5 2.5 0 0 1 -2.5 0A2.5 2.5 0 0 1 0 -2.5A2.5 2.5 0 0 1 2.5 0Z" fill="#e45656"/><path fill-rule="evenodd" d="M1.5 0A0 0 0 0 1 0 1.5A0 0 0 0 1 -1.5 0A0 0 0 0 1 0 -1.5A0 0 0 0 1 1.5 0Z" fill="#e24444"/></g></g><g><g transform="translate(17.5,3.5)"><g transform="rotate(90)"><path fill-rule="evenodd" d="M3.5 0A3.5 3.5 0 0 1 0 3.5A3.5 3.5 0 0 1 -3.5 0A3.5 3.5 0 0 1 0 -3.5A3.5 3.5 0 0 1 3.5 0ZM2.5 0A2.5 2.5 0 0 1 0 2.5A2.5 2.5 0 0 1 -2.5 0A2.5 2.5 0 0 1 0 -2.5A2.5 2.5 0 0 1 2.5 0Z" fill="#e45656"/><path fill-rule="evenodd" d="M1.5 0A0 0 0 0 1 0 1.5A0 0 0 0 1 -1.5 0A0 0 0 0 1 0 -1.5A0 0 0 0 1 1.5 0Z" fill="#e24444"/></g></g></g><g><g transform="translate(3.5,17.5)"><g transform="rotate(-90)"><path fill-rule="evenodd" d="M3.5 0A3.5 3.5 0 0 1 0 3.5A3.5 3.5 0 0 1 -3.5 0A3.5 3.5 0 0 1 0 -3.5A3.5 3.5 0 0 1 3.5 0ZM2.5 0A2.5 2.5 0 0 1 0 2.5A2.5 2.5 0 0 1 -2.5 0A2.5 2.5 0 0 1 0 -2.5A2.5 2.5 0 0 1 2.5 0Z" fill="#e45656"/><path fill-rule="evenodd" d="M1.5 0A0 0 0 0 1 0 1.5A0 0 0 0 1 -1.5 0A0 0 0 0 1 0 -1.5A0 0 0 0 1 1.5 0Z" fill="#e24444"/></g></g></g><defs><linearGradient gradientUnits="userSpaceOnUse" x1="0" y1="0" x2="0" y2="21" id="g1"><stop offset="0%" stop-color="#b11313"/><stop offset="100%" stop-color="#4a6364"/></linearGradient></defs><path fill-rule="evenodd" d="M12.9 0.5A0 0 0 0 1 12.5 0.9A0 0 0 0 1 12.1 0.5A0.1 0.1 0 0 1 12.5 0.1A0.1 0.1 0 0 1 12.9 0.5ZM10.9 1.5A0 0 0 0 1 10.5 1.9A0 0 0 0 1 10.1 1.5A0.1 0.1 0 0 1 10.5 1.1A0.1 0.1 0 0 1 10.9 1.5ZM12.9 1.5A0 0 0 0 1 12.5 1.9A0 0 0 0 1 12.1 1.5A0.1 0.1 0 0 1 12.5 1.1A0.1 0.1 0 0 1 12.9 1.5ZM10.9 2.5A0 0 0 0 1 10.5 2.9A0 0 0 0 1 10.1 2.5A0.1 0.1 0 0 1 10.5 2.1A0.1 0.1 0 0 1 10.9 2.5ZM11.9 2.5A0 0 0 0 1 11.5 2.9A0 0 0 0 1 11.1 2.5A0.1 0.1 0 0 1 11.5 2.1A0.1 0.1 0 0 1 11.9 2.5ZM12.9 2.5A0 0 0 0 1 12.5 2.9A0 0 0 0 1 12.1 2.5A0.1 0.1 0 0 1 12.5 2.1A0.1 0.1 0 0 1 12.9 2.5ZM8.9 3.5A0 0 0 0 1 8.5 3.9A0 0 0 0 1 8.1 3.5A0.1 0.1 0 0 1 8.5 3.1A0.1 0.1 0 0 1 8.9 3.5ZM10.9 3.5A0 0 0 0 1 10.5 3.9A0 0 0 0 1 10.1 3.5A0.1 0.1 0 0 1 10.5 3.1A0.1 0.1 0 0 1 10.9 3.5ZM12.9 3.5A0 0 0 0 1 12.5 3.9A0 0 0 0 1 12.1 3.5A0.1 0.1 0 0 1 12.5 3.1A0.1 0.1 0 0 1 12.9 3.5ZM8.9 4.5A0 0 0 0 1 8.5 4.9A0 0 0 0 1 8.1 4.5A0.1 0.1 0 0 1 8.5 4.1A0.1 0.1 0 0 1 8.9 4.5ZM9.9 4.5A0 0 0 0 1 9.5 4.9A0 0 0 0 1 9.1 4.5A0.1 0.1 0 0 1 9.5 4.1A0.1 0.1 0 0 1 9.9 4.5ZM12.9 4.5A0 0 0 0 1 12.5 4.9A0 0 0 0 1 12.1 4.5A0.1 0.1 0 0 1 12.5 4.1A0.1 0.1 0 0 1 12.9 4.5ZM9.9 5.5A0 0 0 0 1 9.5 5.9A0 0 0 0 1 9.1 5.5A0.1 0.1 0 0 1 9.5 5.1A0.1 0.1 0 0 1 9.9 5.5ZM11.9 5.5A0 0 0 0 1 11.5 5.9A0 0 0 0 1 11.1 5.5A0.1 0.1 0 0 1 11.5 5.1A0.1 0.1 0 0 1 11.9 5.5ZM8.9 6.5A0 0 0 0 1 8.5 6.9A0 0 0 0 1 8.1 6.5A0.1 0.1 0 0 1 8.5 6.1A0.1 0.1 0 0 1 8.9 6.5ZM10.9 6.5A0 0 0 0 1 10.5 6.9A0 0 0 0 1 10.1 6.5A0.1 0.1 0 0 1 10.5 6.1A0.1 0.1 0 0 1 10.9 6.5ZM12.9 6.5A0 0 0 0 1 12.5 6.9A0 0 0 0 1 12.1 6.5A0.1 0.1 0 0 1 12.5 6.1A0.1 0.1 0 0 1 12.9 6.5ZM0.9 8.5A0 0 0 0 1 0.5 8.9A0 0 0 0 1 0.1 8.5A0.1 0.1 0 0 1 0.5 8.1A0.1 0.1 0 0 1 0.9 8.5ZM1.9 8.5A0 0 0 0 1 1.5 8.9A0 0 0 0 1 1.1 8.5A0.1 0.1 0 0 1 1.5 8.1A0.1 0.1 0 0 1 1.9 8.5ZM5.9 8.5A0 0 0 0 1 5.5 8.9A0 0 0 0 1 5.1 8.5A0.1 0.1 0 0 1 5.5 8.1A0.1 0.1 0 0 1 5.9 8.5ZM6.9 8.5A0 0 0 0 1 6.5 8.9A0 0 0 0 1 6.1 8.5A0.1 0.1 0 0 1 6.5 8.1A0.1 0.1 0 0 1 6.9 8.5ZM7.9 8.5A0 0 0 0 1 7.5 8.9A0 0 0 0 1 7.1 8.5A0.1 0.1 0 0 1 7.5 8.1A0.1 0.1 0 0 1 7.9 8.5ZM11.9 8.5A0 0 0 0 1 11.5 8.9A0 0 0 0 1 11.1 8.5A0.1 0.1 0 0 1 11.5 8.1A0.1 0.1 0 0 1 11.9 8.5ZM16.9 8.5A0 0 0 0 1 16.5 8.9A0 0 0 0 1 16.1 8.5A0.1 0.1 0 0 1 16.5 8.1A0.1 0.1 0 0 1 16.9 8.5ZM17.9 8.5A0 0 0 0 1 17.5 8.9A0 0 0 0 1 17.1 8.5A0.1 0.1 0 0 1 17.5 8.1A0.1 0.1 0 0 1 17.9 8.5ZM0.9 9.5A0 0 0 0 1 0.5 9.9A0 0 0 0 1 0.1 9.5A0.1 0.1 0 0 1 0.5 9.1A0.1 0.1 0 0 1 0.9 9.5ZM2.9 9.5A0 0 0 0 1 2.5 9.9A0 0 0 0 1 2.1 9.5A0.1 0.1 0 0 1 2.5 9.1A0.1 0.1 0 0 1 2.9 9.5ZM4.9 9.5A0 0 0 0 1 4.5 9.9A0 0 0 0 1 4.1 9.5A0.1 0.1 0 0 1 4.5 9.1A0.1 0.1 0 0 1 4.9 9.5ZM5.9 9.5A0 0 0 0 1 5.5 9.9A0 0 0 0 1 5.1 9.5A0.1 0.1 0 0 1 5.5 9.1A0.1 0.1 0 0 1 5.9 9.5ZM8.9 9.5A0 0 0 0 1 8.5 9.9A0 0 0 0 1 8.1 9.5A0.1 0.1 0 0 1 8.5 9.1A0.1 0.1 0 0 1 8.9 9.5ZM12.9 9.5A0 0 0 0 1 12.5 9.9A0 0 0 0 1 12.1 9.5A0.1 0.1 0 0 1 12.5 9.1A0.1 0.1 0 0 1 12.9 9.5ZM13.9 9.5A0 0 0 0 1 13.5 9.9A0 0 0 0 1 13.1 9.5A0.1 0.1 0 0 1 13.5 9.1A0.1 0.1 0 0 1 13.9 9.5ZM14.9 9.5A0 0 0 0 1 14.5 9.9A0 0 0 0 1 14.1 9.5A0.1 0.1 0 0 1 14.5 9.1A0.1 0.1 0 0 1 14.9 9.5ZM15.9 9.5A0 0 0 0 1 15.5 9.9A0 0 0 0 1 15.1 9.5A0.1 0.1 0 0 1 15.5 9.1A0.1 0.1 0 0 1 15.9 9.5ZM16.9 9.5A0 0 0 0 1 16.5 9.9A0 0 0 0 1 16.1 9.5A0.1 0.1 0 0 1 16.5 9.1A0.1 0.1 0 0 1 16.9 9.5ZM17.9 9.5A0 0 0 0 1 17.5 9.9A0 0 0 0 1 17.1 9.5A0.1 0.1 0 0 1 17.5 9.1A0.1 0.1 0 0 1 17.9 9.5ZM18.9 9.5A0 0 0 0 1 18.5 9.9A0 0 0 0 1 18.1 9.5A0.1 0.1 0 0 1 18.5 9.1A0.1 0.1 0 0 1 18.9 9.5ZM19.9 9.5A0 0 0 0 1 19.5 9.9A0 0 0 0 1 19.1 9.5A0.1 0.1 0 0 1 19.5 9.1A0.1 0.1 0 0 1 19.9 9.5ZM2.9 10.5A0 0 0 0 1 2.5 10.9A0 0 0 0 1 2.1 10.5A0.1 0.1 0 0 1 2.5 10.1A0.1 0.1 0 0 1 2.9 10.5ZM3.9 10.5A0 0 0 0 1 3.5 10.9A0 0 0 0 1 3.1 10.5A0.1 0.1 0 0 1 3.5 10.1A0.1 0.1 0 0 1 3.9 10.5ZM4.9 10.5A0 0 0 0 1 4.5 10.9A0 0 0 0 1 4.1 10.5A0.1 0.1 0 0 1 4.5 10.1A0.1 0.1 0 0 1 4.9 10.5ZM6.9 10.5A0 0 0 0 1 6.5 10.9A0 0 0 0 1 6.1 10.5A0.1 0.1 0 0 1 6.5 10.1A0.1 0.1 0 0 1 6.9 10.5ZM10.9 10.5A0 0 0 0 1 10.5 10.9A0 0 0 0 1 10.1 10.5A0.1 0.1 0 0 1 10.5 10.1A0.1 0.1 0 0 1 10.9 10.5ZM12.9 10.5A0 0 0 0 1 12.5 10.9A0 0 0 0 1 12.1 10.5A0.1 0.1 0 0 1 12.5 10.1A0.1 0.1 0 0 1 12.9 10.5ZM13.9 10.5A0 0 0 0 1 13.5 10.9A0 0 0 0 1 13.1 10.5A0.1 0.1 0 0 1 13.5 10.1A0.1 0.1 0 0 1 13.9 10.5ZM14.9 10.5A0 0 0 0 1 14.5 10.9A0 0 0 0 1 14.1 10.5A0.1 0.1 0 0 1 14.5 10.1A0.1 0.1 0 0 1 14.9 10.5ZM15.9 10.5A0 0 0 0 1 15.5 10.9A0 0 0 0 1 15.1 10.5A0.1 0.1 0 0 1 15.5 10.1A0.1 0.1 0 0 1 15.9 10.5ZM20.9 10.5A0 0 0 0 1 20.5 10.9A0 0 0 0 1 20.1 10.5A0.1 0.1 0 0 1 20.5 10.1A0.1 0.1 0 0 1 20.9 10.5ZM1.9 11.5A0 0 0 0 1 1.5 11.9A0 0 0 0 1 1.1 11.5A0.1 0.1 0 0 1 1.5 11.1A0.1 0.1 0 0 1 1.9 11.5ZM4.9 11.5A0 0 0 0 1 4.5 11.9A0 0 0 0 1 4.1 11.5A0.1 0.1 0 0 1 4.5 11.1A0.1 0.1 0 0 1 4.9 11.5ZM7.9 11.5A0 0 0 0 1 7.5 11.9A0 0 0 0 1 7.1 11.5A0.1 0.1 0 0 1 7.5 11.1A0.1 0.1 0 0 1 7.9 11.5ZM9.9 11.5A0 0 0 0 1 9.5 11.9A0 0 0 0 1 9.1 11.5A0.1 0.1 0 0 1 9.5 11.1A0.1 0.1 0 0 1 9.9 11.5ZM10.9 11.5A0 0 0 0 1 10.5 11.9A0 0 0 0 1 10.1 11.5A0.1 0.1 0 0 1 10.5 11.1A0.1 0.1 0 0 1 10.9 11.5ZM12.9 11.5A0 0 0 0 1 12.5 11.9A0 0 0 0 1 12.1 11.5A0.1 0.1 0 0 1 12.5 11.1A0.1 0.1 0 0 1 12.9 11.5ZM15.9 11.5A0 0 0 0 1 15.5 11.9A0 0 0 0 1 15.1 11.5A0.1 0.1 0 0 1 15.5 11.1A0.1 0.1 0 0 1 15.9 11.5ZM16.9 11.5A0 0 0 0 1 16.5 11.9A0 0 0 0 1 16.1 11.5A0.1 0.1 0 0 1 16.5 11.1A0.1 0.1 0 0 1 16.9 11.5ZM18.9 11.5A0 0 0 0 1 18.5 11.9A0 0 0 0 1 18.1 11.5A0.1 0.1 0 0 1 18.5 11.1A0.1 0.1 0 0 1 18.9 11.5ZM0.9 12.5A0 0 0 0 1 0.5 12.9A0 0 0 0 1 0.1 12.5A0.1 0.1 0 0 1 0.5 12.1A0.1 0.1 0 0 1 0.9 12.5ZM3.9 12.5A0 0 0 0 1 3.5 12.9A0 0 0 0 1 3.1 12.5A0.1 0.1 0 0 1 3.5 12.1A0.1 0.1 0 0 1 3.9 12.5ZM6.9 12.5A0 0 0 0 1 6.5 12.9A0 0 0 0 1 6.1 12.5A0.1 0.1 0 0 1 6.5 12.1A0.1 0.1 0 0 1 6.9 12.5ZM8.9 12.5A0 0 0 0 1 8.5 12.9A0 0 0 0 1 8.1 12.5A0.1 0.1 0 0 1 8.5 12.1A0.1 0.1 0 0 1 8.9 12.5ZM9.9 12.5A0 0 0 0 1 9.5 12.9A0 0 0 0 1 9.1 12.5A0.1 0.1 0 0 1 9.5 12.1A0.1 0.1 0 0 1 9.9 12.5ZM10.9 12.5A0 0 0 0 1 10.5 12.9A0 0 0 0 1 10.1 12.5A0.1 0.1 0 0 1 10.5 12.1A0.1 0.1 0 0 1 10.9 12.5ZM11.9 12.5A0 0 0 0 1 11.5 12.9A0 0 0 0 1 11.1 12.5A0.1 0.1 0 0 1 11.5 12.1A0.1 0.1 0 0 1 11.9 12.5ZM12.9 12.5A0 0 0 0 1 12.5 12.9A0 0 0 0 1 12.1 12.5A0.1 0.1 0 0 1 12.5 12.1A0.1 0.1 0 0 1 12.9 12.5ZM13.9 12.5A0 0 0 0 1 13.5 12.9A0 0 0 0 1 13.1 12.5A0.1 0.1 0 0 1 13.5 12.1A0.1 0.1 0 0 1 13.9 12.5ZM16.9 12.5A0 0 0 0 1 16.5 12.9A0 0 0 0 1 16.1 12.5A0.1 0.1 0 0 1 16.5 12.1A0.1 0.1 0 0 1 16.9 12.5ZM19.9 12.5A0 0 0 0 1 19.5 12.9A0 0 0 0 1 19.1 12.5A0.1 0.1 0 0 1 19.5 12.1A0.1 0.1 0 0 1 19.9 12.5ZM20.9 12.5A0 0 0 0 1 20.5 12.9A0 0 0 0 1 20.1 12.5A0.1 0.1 0 0 1 20.5 12.1A0.1 0.1 0 0 1 20.9 12.5ZM8.9 13.5A0 0 0 0 1 8.5 13.9A0 0 0 0 1 8.1 13.5A0.1 0.1 0 0 1 8.5 13.1A0.1 0.1 0 0 1 8.9 13.5ZM10.9 13.5A0 0 0 0 1 10.5 13.9A0 0 0 0 1 10.1 13.5A0.1 0.1 0 0 1 10.5 13.1A0.1 0.1 0 0 1 10.9 13.5ZM11.9 13.5A0 0 0 0 1 11.5 13.9A0 0 0 0 1 11.1 13.5A0.1 0.1 0 0 1 11.5 13.1A0.1 0.1 0 0 1 11.9 13.5ZM12.9 13.5A0 0 0 0 1 12.5 13.9A0 0 0 0 1 12.1 13.5A0.1 0.1 0 0 1 12.5 13.1A0.1 0.1 0 0 1 12.9 13.5ZM16.9 13.5A0 0 0 0 1 16.5 13.9A0 0 0 0 1 16.1 13.5A0.1 0.1 0 0 1 16.5 13.1A0.1 0.1 0 0 1 16.9 13.5ZM17.9 13.5A0 0 0 0 1 17.5 13.9A0 0 0 0 1 17.1 13.5A0.1 0.1 0 0 1 17.5 13.1A0.1 0.1 0 0 1 17.9 13.5ZM18.9 13.5A0 0 0 0 1 18.5 13.9A0 0 0 0 1 18.1 13.5A0.1 0.1 0 0 1 18.5 13.1A0.1 0.1 0 0 1 18.9 13.5ZM8.9 14.5A0 0 0 0 1 8.5 14.9A0 0 0 0 1 8.1 14.5A0.1 0.1 0 0 1 8.5 14.1A0.1 0.1 0 0 1 8.9 14.5ZM11.9 14.5A0 0 0 0 1 11.5 14.9A0 0 0 0 1 11.1 14.5A0.1 0.1 0 0 1 11.5 14.1A0.1 0.1 0 0 1 11.9 14.5ZM14.9 14.5A0 0 0 0 1 14.5 14.9A0 0 0 0 1 14.1 14.5A0.1 0.1 0 0 1 14.5 14.1A0.1 0.1 0 0 1 14.9 14.5ZM16.9 14.5A0 0 0 0 1 16.5 14.9A0 0 0 0 1 16.1 14.5A0.1 0.1 0 0 1 16.5 14.1A0.1 0.1 0 0 1 16.9 14.5ZM17.9 14.5A0 0 0 0 1 17.5 14.9A0 0 0 0 1 17.1 14.5A0.1 0.1 0 0 1 17.5 14.1A0.1 0.1 0 0 1 17.9 14.5ZM19.9 14.5A0 0 0 0 1 19.5 14.9A0 0 0 0 1 19.1 14.5A0.1 0.1 0 0 1 19.5 14.1A0.1 0.1 0 0 1 19.9 14.5ZM8.9 15.5A0 0 0 0 1 8.5 15.9A0 0 0 0 1 8.1 15.5A0.1 0.1 0 0 1 8.5 15.1A0.1 0.1 0 0 1 8.9 15.5ZM9.9 15.5A0 0 0 0 1 9.5 15.9A0 0 0 0 1 9.1 15.5A0.1 0.1 0 0 1 9.5 15.1A0.1 0.1 0 0 1 9.9 15.5ZM10.9 15.5A0 0 0 0 1 10.5 15.9A0 0 0 0 1 10.1 15.5A0.1 0.1 0 0 1 10.5 15.1A0.1 0.1 0 0 1 10.9 15.5ZM13.9 15.5A0 0 0 0 1 13.5 15.9A0 0 0 0 1 13.1 15.5A0.1 0.1 0 0 1 13.5 15.1A0.1 0.1 0 0 1 13.9 15.5ZM17.9 15.5A0 0 0 0 1 17.5 15.9A0 0 0 0 1 17.1 15.5A0.1 0.1 0 0 1 17.5 15.1A0.1 0.1 0 0 1 17.9 15.5ZM18.9 15.5A0 0 0 0 1 18.5 15.9A0 0 0 0 1 18.1 15.5A0.1 0.1 0 0 1 18.5 15.1A0.1 0.1 0 0 1 18.9 15.5ZM9.9 16.5A0 0 0 0 1 9.5 16.9A0 0 0 0 1 9.1 16.5A0.1 0.1 0 0 1 9.5 16.1A0.1 0.1 0 0 1 9.9 16.5ZM10.9 16.5A0 0 0 0 1 10.5 16.9A0 0 0 0 1 10.1 16.5A0.1 0.1 0 0 1 10.5 16.1A0.1 0.1 0 0 1 10.9 16.5ZM11.9 16.5A0 0 0 0 1 11.5 16.9A0 0 0 0 1 11.1 16.5A0.1 0.1 0 0 1 11.5 16.1A0.1 0.1 0 0 1 11.9 16.5ZM12.9 16.5A0 0 0 0 1 12.5 16.9A0 0 0 0 1 12.1 16.5A0.1 0.1 0 0 1 12.5 16.1A0.1 0.1 0 0 1 12.9 16.5ZM14.9 16.5A0 0 0 0 1 14.5 16.9A0 0 0 0 1 14.1 16.5A0.1 0.1 0 0 1 14.5 16.1A0.1 0.1 0 0 1 14.9 16.5ZM17.9 16.5A0 0 0 0 1 17.5 16.9A0 0 0 0 1 17.1 16.5A0.1 0.1 0 0 1 17.5 16.1A0.1 0.1 0 0 1 17.9 16.5ZM18.9 16.5A0 0 0 0 1 18.5 16.9A0 0 0 0 1 18.1 16.5A0.1 0.1 0 0 1 18.5 16.1A0.1 0.1 0 0 1 18.9 16.5ZM20.9 16.5A0 0 0 0 1 20.5 16.9A0 0 0 0 1 20.1 16.5A0.1 0.1 0 0 1 20.5 16.1A0.1 0.1 0 0 1 20.9 16.5ZM9.9 17.5A0 0 0 0 1 9.5 17.9A0 0 0 0 1 9.1 17.5A0.1 0.1 0 0 1 9.5 17.1A0.1 0.1 0 0 1 9.9 17.5ZM11.9 17.5A0 0 0 0 1 11.5 17.9A0 0 0 0 1 11.1 17.5A0.1 0.1 0 0 1 11.5 17.1A0.1 0.1 0 0 1 11.9 17.5ZM13.9 17.5A0 0 0 0 1 13.5 17.9A0 0 0 0 1 13.1 17.5A0.1 0.1 0 0 1 13.5 17.1A0.1 0.1 0 0 1 13.9 17.5ZM15.9 17.5A0 0 0 0 1 15.5 17.9A0 0 0 0 1 15.1 17.5A0.1 0.1 0 0 1 15.5 17.1A0.1 0.1 0 0 1 15.9 17.5ZM17.9 17.5A0 0 0 0 1 17.5 17.9A0 0 0 0 1 17.1 17.5A0.1 0.1 0 0 1 17.5 17.1A0.1 0.1 0 0 1 17.9 17.5ZM18.9 17.5A0 0 0 0 1 18.5 17.9A0 0 0 0 1 18.1 17.5A0.1 0.1 0 0 1 18.5 17.1A0.1 0.1 0 0 1 18.9 17.5ZM19.9 17.5A0 0 0 0 1 19.5 17.9A0 0 0 0 1 19.1 17.5A0.1 0.1 0 0 1 19.5 17.1A0.1 0.1 0 0 1 19.9 17.5ZM10.9 18.5A0 0 0 0 1 10.5 18.9A0 0 0 0 1 10.1 18.5A0.1 0.1 0 0 1 10.5 18.1A0.1 0.1 0 0 1 10.9 18.5ZM13.9 18.5A0 0 0 0 1 13.5 18.9A0 0 0 0 1 13.1 18.5A0.1 0.1 0 0 1 13.5 18.1A0.1 0.1 0 0 1 13.9 18.5ZM15.9 18.5A0 0 0 0 1 15.5 18.9A0 0 0 0 1 15.1 18.5A0.1 0.1 0 0 1 15.5 18.1A0.1 0.1 0 0 1 15.9 18.5ZM17.9 18.5A0 0 0 0 1 17.5 18.9A0 0 0 0 1 17.1 18.5A0.1 0.1 0 0 1 17.5 18.1A0.1 0.1 0 0 1 17.9 18.5ZM19.9 18.5A0 0 0 0 1 19.5 18.9A0 0 0 0 1 19.1 18.5A0.1 0.1 0 0 1 19.5 18.1A0.1 0.1 0 0 1 19.9 18.5ZM20.9 18.5A0 0 0 0 1 20.5 18.9A0 0 0 0 1 20.1 18.5A0.1 0.1 0 0 1 20.5 18.1A0.1 0.1 0 0 1 20.9 18.5ZM8.9 19.5A0 0 0 0 1 8.5 19.9A0 0 0 0 1 8.1 19.5A0.1 0.1 0 0 1 8.5 19.1A0.1 0.1 0 0 1 8.9 19.5ZM10.9 19.5A0 0 0 0 1 10.5 19.9A0 0 0 0 1 10.1 19.5A0.1 0.1 0 0 1 10.5 19.1A0.1 0.1 0 0 1 10.9 19.5ZM16.9 19.5A0 0 0 0 1 16.5 19.9A0 0 0 0 1 16.1 19.5A0.1 0.1 0 0 1 16.5 19.1A0.1 0.1 0 0 1 16.9 19.5ZM17.9 19.5A0 0 0 0 1 17.5 19.9A0 0 0 0 1 17.1 19.5A0.1 0.1 0 0 1 17.5 19.1A0.1 0.1 0 0 1 17.9 19.5ZM19.9 19.5A0 0 0 0 1 19.5 19.9A0 0 0 0 1 19.1 19.5A0.1 0.1 0 0 1 19.5 19.1A0.1 0.1 0 0 1 19.9 19.5ZM20.9 19.5A0 0 0 0 1 20.5 19.9A0 0 0 0 1 20.1 19.5A0.1 0.1 0 0 1 20.5 19.1A0.1 0.1 0 0 1 20.9 19.5ZM8.9 20.5A0 0 0 0 1 8.5 20.9A0 0 0 0 1 8.1 20.5A0.1 0.1 0 0 1 8.5 20.1A0.1 0.1 0 0 1 8.9 20.5ZM11.9 20.5A0 0 0 0 1 11.5 20.9A0 0 0 0 1 11.1 20.5A0.1 0.1 0 0 1 11.5 20.1A0.1 0.1 0 0 1 11.9 20.5ZM12.9 20.5A0 0 0 0 1 12.5 20.9A0 0 0 0 1 12.1 20.5A0.1 0.1 0 0 1 12.5 20.1A0.1 0.1 0 0 1 12.9 20.5ZM13.9 20.5A0 0 0 0 1 13.5 20.9A0 0 0 0 1 13.1 20.5A0.1 0.1 0 0 1 13.5 20.1A0.1 0.1 0 0 1 13.9 20.5ZM14.9 20.5A0 0 0 0 1 14.5 20.9A0 0 0 0 1 14.1 20.5A0.1 0.1 0 0 1 14.5 20.1A0.1 0.1 0 0 1 14.9 20.5ZM17.9 20.5A0 0 0 0 1 17.5 20.9A0 0 0 0 1 17.1 20.5A0.1 0.1 0 0 1 17.5 20.1A0.1 0.1 0 0 1 17.9 20.5ZM18.9 20.5A0 0 0 0 1 18.5 20.9A0 0 0 0 1 18.1 20.5A0.1 0.1 0 0 1 18.5 20.1A0.1 0.1 0 0 1 18.9 20.5ZM19.9 20.5A0 0 0 0 1 19.5 20.9A0 0 0 0 1 19.1 20.5A0.1 0.1 0 0 1 19.5 20.1A0.1 0.1 0 0 1 19.9 20.5Z" fill="url(#g1)"/></g></g></svg>
